<?xml version="1.0" standalone="no"?>
<!DOCTYPE svg PUBLIC "-//W3C//DTD SVG 1.1//EN" "http://www.w3.org/Graphics/SVG/1.1/DTD/svg11.dtd" >
<svg xmlns="http://www.w3.org/2000/svg" xmlns:xlink="http://www.w3.org/1999/xlink" version="1.1">
<metadata>
Created by FontForge 20170731 at Wed Sep 14 03:21:33 2022
 By Aleksey,,,
Copyright (c) 2020 by Joanna Malinis. All rights reserved.
</metadata>
<defs>
<font id="HookTRIAL-Regular" horiz-adv-x="856" >
  <font-face 
    font-family="Hook TRIAL"
    font-weight="400"
    font-stretch="normal"
    units-per-em="2048"
    panose-1="0 0 5 0 0 0 0 0 0 0"
    ascent="1638"
    descent="-410"
    x-height="983"
    cap-height="1434"
    bbox="-143 -410 1821 1497"
    underline-thickness="102"
    underline-position="-307"
    unicode-range="U+0020-007A"
  />
<missing-glyph 
d="M68 1374v-35h-25v95h702q19 0 29 7.5t10 16.5v39h9v-158h-9v35q0 27 -39 27h-657q-8 0 -14 -8.5t-6 -18.5zM389 1174q-84 -20 -84 -130q0 -65 40 -111t101 -46v-15q-70 0 -123 50t-53 122q0 77 47 126t117 49h311q39 0 39 28v33h9v-94h-152q2 -8 5 -13t11 -9.5t13.5 -7
t23 -8.5t29.5 -11q36 -7 60 -45.5t24 -85.5q0 -95 -46 -143t-120 -48q-73 0 -120.5 49.5t-47.5 130.5q0 126 -39 179q-6 9 -20.5 9t-24.5 -9zM616 1186h-182q35 -26 43 -60.5t8 -119.5q0 -62 46.5 -108t109.5 -46q64 0 103.5 39.5t39.5 114.5q0 38 -17 69.5t-44 38.5
q-52 16 -69 28.5t-38 43.5zM784 729v27h9v-144h-9v27q0 33 -39 33h-415q-17 0 -21 -6.5t-4 -26.5v-27h-22v97h462q39 0 39 20zM117 684q0 35 33 35q20 0 28 -8t8 -27q0 -37 -36 -37q-33 0 -33 37zM784 360v27h9v-143h-9v35q0 9 -10 16.5t-29 7.5h-415q-8 0 -16.5 -8.5
t-8.5 -15.5v-216q0 -7 1 -10.5t6.5 -7.5t17.5 -4h311q61 0 102 46t41 110h9q0 -103 -48 -134q-40 -61 -104 -61h-311q-19 0 -22 -2.5t-3 -19.5v-23h-22v23q0 17 -2.5 19.5t-20.5 2.5h-217v39h217q11 0 16.5 4t6 7.5t0.5 10.5v277h225q0 15 -22 25t-52 10q-77 10 -129 64
t-35 136l35 -10q-16 -75 24 -120.5t105 -45.5q32 -10 59 -27.5t27 -31.5h225q39 0 39 20z" />
    <glyph glyph-name=".notdef" 
d="M68 1374v-35h-25v95h702q19 0 29 7.5t10 16.5v39h9v-158h-9v35q0 27 -39 27h-657q-8 0 -14 -8.5t-6 -18.5zM389 1174q-84 -20 -84 -130q0 -65 40 -111t101 -46v-15q-70 0 -123 50t-53 122q0 77 47 126t117 49h311q39 0 39 28v33h9v-94h-152q2 -8 5 -13t11 -9.5t13.5 -7
t23 -8.5t29.5 -11q36 -7 60 -45.5t24 -85.5q0 -95 -46 -143t-120 -48q-73 0 -120.5 49.5t-47.5 130.5q0 126 -39 179q-6 9 -20.5 9t-24.5 -9zM616 1186h-182q35 -26 43 -60.5t8 -119.5q0 -62 46.5 -108t109.5 -46q64 0 103.5 39.5t39.5 114.5q0 38 -17 69.5t-44 38.5
q-52 16 -69 28.5t-38 43.5zM784 729v27h9v-144h-9v27q0 33 -39 33h-415q-17 0 -21 -6.5t-4 -26.5v-27h-22v97h462q39 0 39 20zM117 684q0 35 33 35q20 0 28 -8t8 -27q0 -37 -36 -37q-33 0 -33 37zM784 360v27h9v-143h-9v35q0 9 -10 16.5t-29 7.5h-415q-8 0 -16.5 -8.5
t-8.5 -15.5v-216q0 -7 1 -10.5t6.5 -7.5t17.5 -4h311q61 0 102 46t41 110h9q0 -103 -48 -134q-40 -61 -104 -61h-311q-19 0 -22 -2.5t-3 -19.5v-23h-22v23q0 17 -2.5 19.5t-20.5 2.5h-217v39h217q11 0 16.5 4t6 7.5t0.5 10.5v277h225q0 15 -22 25t-52 10q-77 10 -129 64
t-35 136l35 -10q-16 -75 24 -120.5t105 -45.5q32 -10 59 -27.5t27 -31.5h225q39 0 39 20z" />
    <glyph glyph-name=".null" horiz-adv-x="0" 
 />
    <glyph glyph-name="nonmarkingreturn" horiz-adv-x="682" 
 />
    <glyph glyph-name="space" unicode=" " horiz-adv-x="409" 
 />
    <glyph glyph-name="exclam" unicode="!" 
d="M68 1374v-35h-25v95h702q19 0 29 7.5t10 16.5v39h9v-158h-9v35q0 27 -39 27h-657q-8 0 -14 -8.5t-6 -18.5zM389 1174q-84 -20 -84 -130q0 -65 40 -111t101 -46v-15q-70 0 -123 50t-53 122q0 77 47 126t117 49h311q39 0 39 28v33h9v-94h-152q2 -8 5 -13t11 -9.5t13.5 -7
t23 -8.5t29.5 -11q36 -7 60 -45.5t24 -85.5q0 -95 -46 -143t-120 -48q-73 0 -120.5 49.5t-47.5 130.5q0 126 -39 179q-6 9 -20.5 9t-24.5 -9zM616 1186h-182q35 -26 43 -60.5t8 -119.5q0 -62 46.5 -108t109.5 -46q64 0 103.5 39.5t39.5 114.5q0 38 -17 69.5t-44 38.5
q-52 16 -69 28.5t-38 43.5zM784 729v27h9v-144h-9v27q0 33 -39 33h-415q-17 0 -21 -6.5t-4 -26.5v-27h-22v97h462q39 0 39 20zM117 684q0 35 33 35q20 0 28 -8t8 -27q0 -37 -36 -37q-33 0 -33 37zM784 360v27h9v-143h-9v35q0 9 -10 16.5t-29 7.5h-415q-8 0 -16.5 -8.5
t-8.5 -15.5v-216q0 -7 1 -10.5t6.5 -7.5t17.5 -4h311q61 0 102 46t41 110h9q0 -103 -48 -134q-40 -61 -104 -61h-311q-19 0 -22 -2.5t-3 -19.5v-23h-22v23q0 17 -2.5 19.5t-20.5 2.5h-217v39h217q11 0 16.5 4t6 7.5t0.5 10.5v277h225q0 15 -22 25t-52 10q-77 10 -129 64
t-35 136l35 -10q-16 -75 24 -120.5t105 -45.5q32 -10 59 -27.5t27 -31.5h225q39 0 39 20z" />
    <glyph glyph-name="comma" unicode="," 
d="M68 1374v-35h-25v95h702q19 0 29 7.5t10 16.5v39h9v-158h-9v35q0 27 -39 27h-657q-8 0 -14 -8.5t-6 -18.5zM389 1174q-84 -20 -84 -130q0 -65 40 -111t101 -46v-15q-70 0 -123 50t-53 122q0 77 47 126t117 49h311q39 0 39 28v33h9v-94h-152q2 -8 5 -13t11 -9.5t13.5 -7
t23 -8.5t29.5 -11q36 -7 60 -45.5t24 -85.5q0 -95 -46 -143t-120 -48q-73 0 -120.5 49.5t-47.5 130.5q0 126 -39 179q-6 9 -20.5 9t-24.5 -9zM616 1186h-182q35 -26 43 -60.5t8 -119.5q0 -62 46.5 -108t109.5 -46q64 0 103.5 39.5t39.5 114.5q0 38 -17 69.5t-44 38.5
q-52 16 -69 28.5t-38 43.5zM784 729v27h9v-144h-9v27q0 33 -39 33h-415q-17 0 -21 -6.5t-4 -26.5v-27h-22v97h462q39 0 39 20zM117 684q0 35 33 35q20 0 28 -8t8 -27q0 -37 -36 -37q-33 0 -33 37zM784 360v27h9v-143h-9v35q0 9 -10 16.5t-29 7.5h-415q-8 0 -16.5 -8.5
t-8.5 -15.5v-216q0 -7 1 -10.5t6.5 -7.5t17.5 -4h311q61 0 102 46t41 110h9q0 -103 -48 -134q-40 -61 -104 -61h-311q-19 0 -22 -2.5t-3 -19.5v-23h-22v23q0 17 -2.5 19.5t-20.5 2.5h-217v39h217q11 0 16.5 4t6 7.5t0.5 10.5v277h225q0 15 -22 25t-52 10q-77 10 -129 64
t-35 136l35 -10q-16 -75 24 -120.5t105 -45.5q32 -10 59 -27.5t27 -31.5h225q39 0 39 20z" />
    <glyph glyph-name="period" unicode="." 
d="M68 1374v-35h-25v95h702q19 0 29 7.5t10 16.5v39h9v-158h-9v35q0 27 -39 27h-657q-8 0 -14 -8.5t-6 -18.5zM389 1174q-84 -20 -84 -130q0 -65 40 -111t101 -46v-15q-70 0 -123 50t-53 122q0 77 47 126t117 49h311q39 0 39 28v33h9v-94h-152q2 -8 5 -13t11 -9.5t13.5 -7
t23 -8.5t29.5 -11q36 -7 60 -45.5t24 -85.5q0 -95 -46 -143t-120 -48q-73 0 -120.5 49.5t-47.5 130.5q0 126 -39 179q-6 9 -20.5 9t-24.5 -9zM616 1186h-182q35 -26 43 -60.5t8 -119.5q0 -62 46.5 -108t109.5 -46q64 0 103.5 39.5t39.5 114.5q0 38 -17 69.5t-44 38.5
q-52 16 -69 28.5t-38 43.5zM784 729v27h9v-144h-9v27q0 33 -39 33h-415q-17 0 -21 -6.5t-4 -26.5v-27h-22v97h462q39 0 39 20zM117 684q0 35 33 35q20 0 28 -8t8 -27q0 -37 -36 -37q-33 0 -33 37zM784 360v27h9v-143h-9v35q0 9 -10 16.5t-29 7.5h-415q-8 0 -16.5 -8.5
t-8.5 -15.5v-216q0 -7 1 -10.5t6.5 -7.5t17.5 -4h311q61 0 102 46t41 110h9q0 -103 -48 -134q-40 -61 -104 -61h-311q-19 0 -22 -2.5t-3 -19.5v-23h-22v23q0 17 -2.5 19.5t-20.5 2.5h-217v39h217q11 0 16.5 4t6 7.5t0.5 10.5v277h225q0 15 -22 25t-52 10q-77 10 -129 64
t-35 136l35 -10q-16 -75 24 -120.5t105 -45.5q32 -10 59 -27.5t27 -31.5h225q39 0 39 20z" />
    <glyph glyph-name="slash" unicode="/" 
d="M68 1374v-35h-25v95h702q19 0 29 7.5t10 16.5v39h9v-158h-9v35q0 27 -39 27h-657q-8 0 -14 -8.5t-6 -18.5zM389 1174q-84 -20 -84 -130q0 -65 40 -111t101 -46v-15q-70 0 -123 50t-53 122q0 77 47 126t117 49h311q39 0 39 28v33h9v-94h-152q2 -8 5 -13t11 -9.5t13.5 -7
t23 -8.5t29.5 -11q36 -7 60 -45.5t24 -85.5q0 -95 -46 -143t-120 -48q-73 0 -120.5 49.5t-47.5 130.5q0 126 -39 179q-6 9 -20.5 9t-24.5 -9zM616 1186h-182q35 -26 43 -60.5t8 -119.5q0 -62 46.5 -108t109.5 -46q64 0 103.5 39.5t39.5 114.5q0 38 -17 69.5t-44 38.5
q-52 16 -69 28.5t-38 43.5zM784 729v27h9v-144h-9v27q0 33 -39 33h-415q-17 0 -21 -6.5t-4 -26.5v-27h-22v97h462q39 0 39 20zM117 684q0 35 33 35q20 0 28 -8t8 -27q0 -37 -36 -37q-33 0 -33 37zM784 360v27h9v-143h-9v35q0 9 -10 16.5t-29 7.5h-415q-8 0 -16.5 -8.5
t-8.5 -15.5v-216q0 -7 1 -10.5t6.5 -7.5t17.5 -4h311q61 0 102 46t41 110h9q0 -103 -48 -134q-40 -61 -104 -61h-311q-19 0 -22 -2.5t-3 -19.5v-23h-22v23q0 17 -2.5 19.5t-20.5 2.5h-217v39h217q11 0 16.5 4t6 7.5t0.5 10.5v277h225q0 15 -22 25t-52 10q-77 10 -129 64
t-35 136l35 -10q-16 -75 24 -120.5t105 -45.5q32 -10 59 -27.5t27 -31.5h225q39 0 39 20z" />
    <glyph glyph-name="zero" unicode="0" horiz-adv-x="980" 
d="M940 717q0 -104 -17 -207.5t-53.5 -200.5t-88.5 -171.5t-127.5 -119.5t-164.5 -45q-87 0 -162.5 46.5t-126.5 122t-88 173.5t-54 200t-17 202q0 127 29 255t82.5 238.5t141.5 180t195 69.5q111 0 200 -69t142 -179.5t81 -238t28 -256.5zM125 717q0 -145 22 -271
t65.5 -225t114.5 -156t162 -57q93 0 165 57t115 156t65 224.5t22 271.5q0 145 -22 270t-65 224.5t-115 156.5t-165 57q-91 0 -162 -57t-114.5 -156t-65.5 -224.5t-22 -270.5z" />
    <glyph glyph-name="one" unicode="1" horiz-adv-x="813" 
d="M504 35h268v-35h-731v35h295q22 0 35.5 14.5t13.5 36.5v1264l-250 -574h-37l287 658h70v-1348q0 -22 13.5 -36.5t35.5 -14.5z" />
    <glyph glyph-name="two" unicode="2" horiz-adv-x="798" 
d="M723 262h35v-262h-717v35q31 0 41.5 4.5t19.5 21.5q48 95 233 453.5t277 546.5q31 63 33 129t-21.5 118.5t-76.5 85t-125 31.5q-127 -3 -211.5 -137t-83.5 -368h-37v221q13 37 28.5 71.5t46 82t64.5 82t85 59t108 24.5q72 0 131 -24.5t95 -66t54.5 -93t13.5 -109.5
t-32 -112l-498 -979q-7 -13 1.5 -27t23.5 -14h410q38 0 64 19.5t28 45.5z" />
    <glyph glyph-name="three" unicode="3" horiz-adv-x="956" 
d="M549 852q-4 -9 0.5 -18t13.5 -11q150 -25 251 -141.5t101 -269.5q0 -112 -62 -214t-164.5 -163.5t-215.5 -61.5q-114 0 -214 61.5t-159 163t-59 214.5v43l39 -2v-41q0 -111 57.5 -205t148 -146.5t187.5 -52.5q153 -3 255.5 114t102.5 290q0 170 -95 276.5t-242 106.5h-86
v34h32q28 0 41 27l264 522q4 7 -1 14t-13 7h-440q-38 0 -64 -20t-28 -46l-11 -162h-34v263h710v-35h-12q-25 0 -39 -25z" />
    <glyph glyph-name="four" unicode="4" horiz-adv-x="960" 
d="M920 342v-35h-185q-16 0 -16 -16v-205q0 -22 13.5 -36.5t35.5 -14.5h59v-35h-286v35h59q22 0 35.5 14.5t13.5 36.5v205q0 16 -16 16h-592v35h18q18 0 31 13.5t29 43.5l518 955q9 23 1 34t-24 11h-34v35h213v-35h-23q-20 0 -35.5 -14.5t-15.5 -34.5v-992q0 -16 16 -16h185
zM176 342h457q16 0 16 16v942l-495 -919q-8 -20 -1 -29.5t23 -9.5z" />
    <glyph glyph-name="five" unicode="5" horiz-adv-x="948" 
d="M82 1399v35h743v-263h-34l-11 162q-2 26 -28 46t-64 20h-420q-22 0 -35.5 -14t-13.5 -37l-2 -490q0 -20 13.5 -34.5t33.5 -14.5h219q85 0 164 -34.5t135.5 -91t90.5 -131t34 -151.5q0 -113 -57 -211.5t-158.5 -157.5t-222.5 -59q-117 0 -215.5 62t-153.5 162.5t-55 214.5
v43l39 -2v-41q0 -111 55 -204t143 -145.5t187 -54.5q155 -3 254.5 108.5t99.5 284.5q0 158 -96.5 265.5t-243.5 107.5h-336l3 574q0 23 -14.5 37t-35.5 14h-18z" />
    <glyph glyph-name="six" unicode="6" horiz-adv-x="948" 
d="M485 915q96 0 177.5 -42t134 -109.5t81.5 -151t29 -168.5q0 -104 -37 -194t-97 -149.5t-135.5 -93.5t-152.5 -34q-85 0 -164.5 34t-142 93.5t-100 149.5t-37.5 194v525q0 95 31.5 183t88 156.5t141 110t183.5 41.5q56 0 106 -19t84.5 -44.5t69 -68t53 -72.5t42.5 -74
v-189h-35q0 192 -93 313t-227 121q-98 0 -172 -42.5t-115.5 -113t-62 -151t-20.5 -168.5v-250q124 213 370 213zM485 6q99 0 177.5 63t119.5 162t41 213t-41 213t-119.5 161.5t-177.5 62.5q-108 0 -192.5 -63t-127 -161.5t-42.5 -212.5t42.5 -213t127 -162t192.5 -63z" />
    <glyph glyph-name="seven" unicode="7" horiz-adv-x="888" 
d="M893 1434v-35h-6q-41 0 -58 -33l-14 -27l-467 -1263q-6 -12 0 -27q10 -14 25 -14h55v-35h-248v35h31q37 0 57 33l15 26l467 1264q6 12 0 28q-13 13 -25 13h-547q-38 0 -64 -20t-28 -46l-10 -162h-35v263h852z" />
    <glyph glyph-name="eight" unicode="8" horiz-adv-x="950" 
d="M582 819q140 -37 233.5 -152.5t93.5 -258.5q0 -189 -127.5 -312t-306.5 -123q-184 0 -309 122t-125 313q0 143 91 258.5t228 152.5q-100 33 -162.5 117.5t-62.5 191.5q0 136 99 234t241 98q141 0 236.5 -97.5t95.5 -234.5q0 -109 -60.5 -193t-164.5 -116zM729 1128
q0 120 -75 208.5t-179 88.5q-109 0 -185.5 -88t-76.5 -209q0 -119 82 -208t180 -89q93 0 173.5 89.5t80.5 207.5zM125 408q0 -171 102.5 -285.5t247.5 -114.5q144 0 243 114t99 286q0 157 -100.5 273t-241.5 116q-142 0 -246 -116.5t-104 -272.5z" />
    <glyph glyph-name="nine" unicode="9" horiz-adv-x="948" 
d="M463 1475q85 0 164.5 -34t142 -93.5t100 -149.5t37.5 -194v-566q0 -114 -57 -214.5t-157 -162t-218 -61.5q-115 0 -213 61.5t-153.5 162.5t-55.5 214v43l39 -2v-41q0 -83 32.5 -158.5t86 -128t122.5 -84t142 -32.5q151 -3 255 114t104 289v307q-124 -213 -371 -213
q-96 0 -177.5 42t-134 110t-81.5 151.5t-29 168.5q0 104 37 194t97 149.5t135.5 93.5t152.5 34zM463 567q108 0 192.5 63t127 161.5t42.5 212.5t-42.5 213t-127 162t-192.5 63q-99 0 -177.5 -63t-119.5 -162t-41 -213t41 -213t119.5 -161.5t177.5 -62.5z" />
    <glyph glyph-name="question" unicode="?" 
d="M68 1374v-35h-25v95h702q19 0 29 7.5t10 16.5v39h9v-158h-9v35q0 27 -39 27h-657q-8 0 -14 -8.5t-6 -18.5zM389 1174q-84 -20 -84 -130q0 -65 40 -111t101 -46v-15q-70 0 -123 50t-53 122q0 77 47 126t117 49h311q39 0 39 28v33h9v-94h-152q2 -8 5 -13t11 -9.5t13.5 -7
t23 -8.5t29.5 -11q36 -7 60 -45.5t24 -85.5q0 -95 -46 -143t-120 -48q-73 0 -120.5 49.5t-47.5 130.5q0 126 -39 179q-6 9 -20.5 9t-24.5 -9zM616 1186h-182q35 -26 43 -60.5t8 -119.5q0 -62 46.5 -108t109.5 -46q64 0 103.5 39.5t39.5 114.5q0 38 -17 69.5t-44 38.5
q-52 16 -69 28.5t-38 43.5zM784 729v27h9v-144h-9v27q0 33 -39 33h-415q-17 0 -21 -6.5t-4 -26.5v-27h-22v97h462q39 0 39 20zM117 684q0 35 33 35q20 0 28 -8t8 -27q0 -37 -36 -37q-33 0 -33 37zM784 360v27h9v-143h-9v35q0 9 -10 16.5t-29 7.5h-415q-8 0 -16.5 -8.5
t-8.5 -15.5v-216q0 -7 1 -10.5t6.5 -7.5t17.5 -4h311q61 0 102 46t41 110h9q0 -103 -48 -134q-40 -61 -104 -61h-311q-19 0 -22 -2.5t-3 -19.5v-23h-22v23q0 17 -2.5 19.5t-20.5 2.5h-217v39h217q11 0 16.5 4t6 7.5t0.5 10.5v277h225q0 15 -22 25t-52 10q-77 10 -129 64
t-35 136l35 -10q-16 -75 24 -120.5t105 -45.5q32 -10 59 -27.5t27 -31.5h225q39 0 39 20z" />
    <glyph glyph-name="A" unicode="A" horiz-adv-x="1171" 
d="M158 90l385 1251q6 22 -5.5 40t-31.5 18h-57v35h264v-35h-58q-17 0 -26 -13.5t-4 -29.5l389 -1264q8 -25 28 -41t45 -16h56v-35h-285v35h53q18 0 28 14.5t5 30.5l-74 242h-602l-73 -242q-5 -16 5.5 -30.5t28.5 -14.5h60v-35h-260v35h55q23 0 45 16t29 39zM860 356
l-289 947l-290 -947h579z" />
    <glyph glyph-name="B" unicode="B" horiz-adv-x="1064" 
d="M662 838q73 0 144 -33t125 -89t87 -134t33 -162q0 -178 -119 -299t-311 -121h-572v35h60q20 0 34.5 13.5t14.5 33.5v1268q0 21 -14 35t-35 14h-60v35h438q134 0 230 -94t96 -222q0 -90 -48 -165.5t-128 -114.5h25zM465 1399h-189q-49 0 -49 -49v-631q90 119 232 119
q113 0 191.5 81.5t78.5 198.5q0 113 -78 197t-186 84zM598 35q167 0 268 111t101 274q0 156 -101 269.5t-227 113.5h-180q-93 0 -162.5 -60t-69.5 -129v-532q0 -20 13.5 -33.5t35.5 -13.5h322z" />
    <glyph glyph-name="C" unicode="C" horiz-adv-x="1574" 
d="M1522 598h39q-54 -286 -258.5 -463.5t-475.5 -177.5q-161 0 -306 59.5t-249 160t-165.5 240t-61.5 292.5q0 158 60 299.5t163 244.5t249 163.5t310 60.5q144 0 280 -62t229 -155t137 -197v-221h-37q0 164 -80.5 302t-221 218t-307.5 80q-145 0 -276 -60t-222.5 -159.5
t-145.5 -234t-54 -279.5q0 -191 94 -353.5t255 -257t349 -94.5q170 0 319.5 77t248.5 213t127 304z" />
    <glyph glyph-name="D" unicode="D" horiz-adv-x="1177" 
d="M158 82v1268q0 21 -14 35t-35 14h-60v35h342q202 0 372.5 -95t270 -259.5t99.5 -358.5q0 -146 -59 -279t-158 -230t-236.5 -154.5t-288.5 -57.5h-342v35h60q20 0 34.5 13.5t14.5 33.5zM391 35q132 0 253.5 55t210 147t141.5 219t53 265q0 137 -53 263t-141.5 216.5
t-210 144.5t-253.5 54h-115q-49 0 -49 -49v-1268q0 -20 13.5 -33.5t35.5 -13.5h115z" />
    <glyph glyph-name="E" unicode="E" horiz-adv-x="864" 
d="M276 1399q-22 0 -35.5 -14t-13.5 -37v-508q0 -20 16 -33.5t38 -13.5h337q23 0 37.5 13.5t14.5 35.5v141h35v-416h-35v142q0 22 -14.5 35.5t-37.5 13.5h-337q-22 0 -38 -14t-16 -35v-627q0 -20 13.5 -33.5t35.5 -13.5h408q38 0 64 19.5t28 45.5l10 162h35v-262h-772v35h60
q20 0 34.5 13.5t14.5 33.5v1266q0 23 -14 37t-35 14h-60v35h772v-263h-35l-10 162q-2 26 -28 46t-64 20h-408z" />
    <glyph glyph-name="F" unicode="F" horiz-adv-x="845" 
d="M49 1434h754v-263h-35l-10 162q-2 26 -28 46t-64 20h-390q-47 0 -47 -51v-545q0 -20 16 -33.5t38 -13.5h344v-37h-344q-22 0 -38 -14t-16 -35v-584q0 -51 47 -51h60v-35h-287v35h60q23 0 37 14t14 37v1262q0 23 -14 37t-37 14h-60v35z" />
    <glyph glyph-name="G" unicode="G" horiz-adv-x="1728" 
d="M1559 84q0 -20 14.5 -33.5t36.5 -13.5h57v-37h-252v37h55q22 0 37 13.5t15 33.5v375q-80 -229 -264.5 -363.5t-430.5 -138.5q-160 -2 -305.5 57t-249.5 160.5t-165.5 241t-61.5 293.5q0 158 60 299.5t163 244.5t249 163.5t310 60.5q219 0 402.5 -110t240.5 -261v-221h-34
q0 127 -47.5 232.5t-129.5 176t-193.5 109.5t-238.5 39q-145 0 -276 -60t-222.5 -159.5t-145.5 -234t-54 -279.5q0 -191 94 -356.5t255 -263t349 -97.5q170 0 319.5 80t248.5 218t127 306q-1 22 -19 30.5t-37 0.5l-172 -90l-18 30l436 226l17 -31l-152 -78q-18 -14 -18 -35
v-565z" />
    <glyph glyph-name="H" unicode="H" horiz-adv-x="970" 
d="M862 1399q-20 0 -34.5 -13t-14.5 -34v-1266q0 -21 15 -36t34 -15h60v-35h-287v35h59q22 0 35.5 14.5t13.5 36.5v240h-516v-240q0 -22 13.5 -36.5t35.5 -14.5h60v-35h-287v35h60q22 0 35.5 14.5t13.5 36.5v1266q0 22 -13.5 34.5t-35.5 12.5h-60v35h287v-35h-60
q-22 0 -35.5 -12.5t-13.5 -34.5v-992h516v992q0 22 -13.5 34.5t-35.5 12.5h-59v35h287v-35h-60z" />
    <glyph glyph-name="I" unicode="I" horiz-adv-x="385" 
d="M227 1352q0 22 13.5 34.5t35.5 12.5h60v35h-287v-35h60q22 0 35.5 -12.5t13.5 -34.5v-1266q0 -22 -13.5 -36.5t-35.5 -14.5h-60v-35h287v35h-60q-22 0 -35.5 14.5t-13.5 36.5v1266z" />
    <glyph glyph-name="J" unicode="J" horiz-adv-x="645" 
d="M596 1434v-35h-59q-22 0 -36 -13t-14 -34v-893q0 -150 -65 -276.5t-170.5 -197.5t-222.5 -71v35q100 0 190 71t144.5 189.5t54.5 249.5v893q0 22 -13 34.5t-36 12.5h-60v35h287z" />
    <glyph glyph-name="K" unicode="K" horiz-adv-x="1050" 
d="M971 35h51v-35h-285v35h41q18 0 27.5 16t1.5 31l-301 571l-262 -575q-7 -13 2 -28t24 -15h62v-35h-283v35h57q19 0 34.5 15t15.5 34v1266q0 19 -15.5 34t-34.5 15h-57v35h283v-35h-58q-19 0 -34 -15t-15 -34v-1217l551 1208q9 22 -3.5 40t-35.5 18h-32v35h253v-35h-47
q-67 0 -94 -64l-274 -602l336 -641q13 -26 38.5 -41.5t53.5 -15.5z" />
    <glyph glyph-name="L" unicode="L" horiz-adv-x="849" 
d="M786 262h35v-262h-772v35h60q22 0 35.5 14.5t13.5 36.5v1266q0 22 -13 34.5t-36 12.5h-60v35h287v-35h-60q-22 0 -35.5 -12.5t-13.5 -34.5v-1266q0 -22 13.5 -36.5t35.5 -14.5h408q38 0 64 19.5t28 45.5z" />
    <glyph glyph-name="M" unicode="M" horiz-adv-x="1505" 
d="M1413 1399q-20 0 -34.5 -14.5t-14.5 -34.5v-1266q0 -20 14.5 -34.5t34.5 -14.5h43v-35h-254v35h43q20 0 34.5 14.5t14.5 34.5v1266l-510 -1293q-3 -7 2 -14.5t13 -7.5h59v-35h-250v35h49q9 0 14.5 7t2.5 15l-492 1250v-1223q0 -20 14.5 -34.5t34.5 -14.5h58v-35h-254v35
h57q22 0 36.5 14.5t14.5 34.5v1266q0 20 -14.5 34.5t-36.5 14.5h-57v35h254v-35h-56q-7 0 -11 -6.5t-1 -12.5l500 -1269q6 -13 21.5 -13t21.5 13l502 1269q2 6 -2.5 12.5t-10.5 6.5h-51v35h254v-35h-43z" />
    <glyph glyph-name="N" unicode="N" horiz-adv-x="946" 
d="M874 1399q-20 0 -34.5 -14.5t-14.5 -34.5v-1266q0 -20 14.5 -34.5t34.5 -14.5h37v-35h-233v35h57q7 0 11 6t2 12l-586 1254v-1223q0 -20 14.5 -34.5t34.5 -14.5h57v-35h-233v35h37q22 0 36.5 14.5t14.5 34.5v1266q0 20 -14.5 34.5t-36.5 14.5h-37v35h233v-35h-55
q-7 0 -11 -6.5t-1 -12.5l585 -1253v1223q0 20 -14.5 34.5t-36.5 14.5h-57v35h233v-35h-37z" />
    <glyph glyph-name="O" unicode="O" horiz-adv-x="1656" 
d="M827 1477q128 0 248 -38.5t216.5 -108.5t169 -163t112 -209t39.5 -239q0 -208 -105 -383.5t-285.5 -277t-394.5 -101.5q-160 0 -305 60t-249.5 161.5t-166 243t-61.5 297.5q0 123 39.5 239t111.5 209t168 163t215.5 108.5t247.5 38.5zM827 -8q142 0 271.5 58t223.5 155.5
t150 232t56 281.5q0 197 -94.5 363.5t-255.5 263t-351 96.5q-189 0 -349.5 -96.5t-254.5 -263t-94 -363.5q0 -196 94 -363.5t255 -265.5t349 -98z" />
    <glyph glyph-name="P" unicode="P" horiz-adv-x="937" 
d="M463 1434q178 0 304 -123t126 -297q0 -176 -117 -298t-295 -122q-99 0 -176.5 -57t-77.5 -129v-324q0 -19 14.5 -34t34.5 -15h80v-35h-307v35h57q21 0 36.5 15t15.5 34v1266q0 19 -15.5 34t-36.5 15h-55v35h412zM461 631q147 7 247.5 118t100.5 265q0 159 -109 272
t-262 113h-162q-20 0 -34.5 -15t-14.5 -34v-838q77 110 234 119z" />
    <glyph glyph-name="Q" unicode="Q" horiz-adv-x="1714" 
d="M1698 35v-35h-608q-119 -43 -261 -43q-159 0 -304 60t-250.5 162t-167.5 242.5t-62 295.5t62 295.5t167.5 242.5t250.5 162t304 60q160 0 305.5 -60t251 -162t168 -242.5t62.5 -295.5q0 -221 -120.5 -404.5t-319.5 -277.5h362q6 0 7 4.5t-5 9.5l-47 31l16 31l72 -41
q60 -35 117 -35zM829 1440q-214 0 -389 -123.5t-256 -321.5q185 -11 352.5 -90t290 -204t197 -294.5t80.5 -355.5q190 83 308 264.5t118 401.5q0 196 -94 362.5t-255.5 263.5t-351.5 97zM172 961q-41 -115 -41 -244q0 -196 94 -362.5t255 -263.5t349 -97q130 0 240 43
q-4 183 -75.5 349.5t-191 289.5t-284 199.5t-346.5 85.5z" />
    <glyph glyph-name="R" unicode="R" horiz-adv-x="1032" 
d="M956 35h52v-35h-283v35h41q17 0 27 14.5t2 34.5l-273 512q-12 -2 -39 -2q-101 0 -178.5 -57t-77.5 -129v-326q0 -20 13.5 -33.5t35.5 -13.5h58v-35h-285v35h60q20 0 34.5 13.5t14.5 33.5v1266q0 23 -14 37t-35 14h-60v35h414q118 0 223.5 -55.5t170.5 -152.5t65 -210
q0 -145 -93.5 -258.5t-236.5 -149.5l274 -516q29 -57 90 -57zM227 514q37 52 107 83.5t149 31.5q148 9 251.5 121.5t103.5 265.5q0 159 -110.5 271t-264.5 112h-187q-22 0 -35.5 -14t-13.5 -37v-834z" />
    <glyph glyph-name="S" unicode="S" horiz-adv-x="780" 
d="M113 1163q0 -63 34.5 -128t90.5 -121.5t123 -114t134 -116.5t123 -117.5t90.5 -127.5t34.5 -137q0 -149 -90.5 -246.5t-246.5 -97.5q-41 0 -80.5 7t-87 25.5t-87.5 58.5t-63 97l-8 -145h-43v319h59q0 -136 81 -231.5t229 -95.5q122 0 195 75.5t73 231.5q0 63 -35 126
t-90.5 117.5t-123 110.5t-134.5 114t-122.5 117.5t-90.5 131.5t-35 147q0 77 25 136t61.5 91.5t85 53t88 27t78.5 6.5q209 0 266 -187l8 144h37v-320h-53q0 69 -14 126.5t-44 103.5t-81 72t-119 26q-136 0 -202 -78.5t-66 -200.5z" />
    <glyph glyph-name="T" unicode="T" horiz-adv-x="1036" 
d="M33 1434h971v-263h-35l-11 162q-2 26 -27.5 46t-62.5 20h-264q-20 0 -35.5 -15t-15.5 -34l2 -1264q0 -22 13.5 -36.5t35.5 -14.5h60v-35h-287v35h59q22 0 35.5 14.5t13.5 36.5l-2 1264q0 19 -14.5 34t-34.5 15h-264q-38 0 -64 -20t-28 -46l-10 -162h-35v263z" />
    <glyph glyph-name="U" unicode="U" horiz-adv-x="1204" 
d="M1159 1434v-35h-55q-28 0 -38.5 -8t-10.5 -41v-912q0 -227 -116 -350t-327 -129q-114 2 -200.5 37.5t-140.5 98.5t-82 147t-31 188v922q0 22 -13.5 34.5t-35.5 12.5h-60v35h287v-35h-60q-22 0 -35.5 -12.5t-13.5 -34.5v-922q0 -197 101 -316.5t284 -119.5
q189 0 294.5 122t105.5 322v912q0 33 -10 41t-39 8h-56v35h252z" />
    <glyph glyph-name="V" unicode="V" horiz-adv-x="1177" 
d="M885 1434h264v-35h-51q-27 0 -48 -15t-30 -38l-387 -1258q-9 -17 5 -35t36 -18h53v-35h-264v35h53q17 0 28.5 14.5t6.5 26.5l-393 1270q-9 23 -30 38t-48 15h-51v35h280v-35h-53q-17 0 -28.5 -14.5t-6.5 -26.5l383 -1223l359 1157l16 66q9 12 -1.5 26.5t-27.5 14.5h-65
v35z" />
    <glyph glyph-name="W" unicode="W" horiz-adv-x="1849" 
d="M1559 1434h262v-35h-56q-25 0 -45.5 -15.5t-27.5 -40.5l-389 -1251q-6 -22 6 -39.5t34 -17.5h52v-35h-262v35h53q18 0 28.5 14t4.5 29l-293 946l-289 -932q-6 -22 5.5 -39.5t33.5 -17.5h51v-35h-262v35h55q17 0 27 14t4 29l-391 1265q-8 25 -29 40.5t-47 15.5h-55v35h286
v-35h-55q-17 0 -27.5 -14t-5.5 -31l379 -1219l297 955l-78 253q-8 25 -27.5 40.5t-45.5 15.5h-56v35h459v-35h-55q-26 0 -47 -15.5t-27 -40.5l-65 -202l313 -1006l379 1219q6 15 -4.5 30t-28.5 15h-61v35zM901 1329l39 -121l27 84l20 62q4 15 -7 30t-26 15h-26
q-18 0 -28 -13.5t-5 -31.5z" />
    <glyph glyph-name="X" unicode="X" horiz-adv-x="1101" 
d="M1028 35h45v-35h-285v35h46q16 0 22.5 14.5t-0.5 26.5l-313 590l-326 -590q-8 -12 0 -26.5t25 -14.5h45v-35h-254v35h43q32 0 61.5 16.5t44.5 44.5l338 609l-342 632q-15 28 -44.5 45t-61.5 17h-43v35h282v-35h-45q-14 0 -21 -14t-1 -27l313 -590l326 590q8 12 0 26.5
t-23 14.5h-45v35h254v-35h-45q-33 0 -62 -17t-44 -45l-336 -608l342 -635q13 -26 42.5 -42.5t61.5 -16.5z" />
    <glyph glyph-name="Y" unicode="Y" horiz-adv-x="1091" 
d="M1063 1434v-35h-47q-33 0 -61.5 -16.5t-43.5 -43.5l-319 -614v-641q0 -20 14.5 -34.5t36.5 -14.5h57v-35h-284v35h57q20 0 34.5 14.5t14.5 34.5v641l-344 614q-15 27 -43 43.5t-59 16.5h-47v35h284v-35h-47q-14 0 -22 -15q-6 -13 0 -26l323 -592l310 592q7 13 0 26
q-7 15 -23 15h-47v35h256z" />
    <glyph glyph-name="Z" unicode="Z" horiz-adv-x="884" 
d="M829 1399q-10 0 -23 -9t-18 -20l-260 -549l170 74l15 -31l-207 -90l-328 -696q-9 -21 -0.5 -32t23.5 -11h506q38 0 64 19.5t28 45.5l10 162h35v-262h-817v35h20q25 0 37 13t27 44l305 641l-178 -78l-17 31l217 94l273 576q8 15 1 29t-24 14h-475q-38 0 -64 -20t-28 -46
l-10 -162h-35v263h782v-35h-29z" />
    <glyph glyph-name="a" unicode="a" horiz-adv-x="983" 
d="M879 37h55v-37h-178v295q-31 -20 -46.5 -46t-43.5 -110q-24 -71 -91.5 -113t-166.5 -42q-174 0 -268.5 88.5t-94.5 230.5q0 139 95 232.5t245 93.5q147 0 225.5 14.5t116.5 52.5q37 40 21 92q-57 158 -252 158q-124 0 -211.5 -80.5t-87.5 -193.5h-37q0 133 100.5 231
t235.5 98q140 0 234.5 -90.5t94.5 -222.5v-600q0 -22 15.5 -36.5t38.5 -14.5zM756 338v340q-48 -54 -117 -69t-223 -15q-124 3 -205.5 -82.5t-81.5 -208.5q0 -130 69.5 -207.5t209.5 -77.5q74 0 139 37.5t86 96.5q37 103 54.5 131t68.5 55z" />
    <glyph glyph-name="b" unicode="b" horiz-adv-x="1089" 
d="M610 1001q100 0 182.5 -42.5t136 -114t82.5 -165t29 -196.5q0 -138 -50.5 -250.5t-150 -180.5t-229.5 -68q-75 0 -131 20.5t-86.5 50t-55 59t-51 50t-59.5 20.5v-184h-178v35h60q22 0 35.5 14.5t13.5 36.5v1262q0 22 -13.5 36.5t-35.5 14.5h-60v35h178v-875q36 0 59 41.5
t23 89.5q0 131 85.5 221t215.5 90zM610 18q156 0 251 132.5t95 332.5q0 129 -39.5 238t-119.5 177.5t-187 68.5q-121 0 -193.5 -82.5t-72.5 -194.5q0 -67 -33.5 -116.5t-83.5 -49.5v-305q33 0 60.5 -15t46.5 -37t45 -48.5t53.5 -48.5t73.5 -37t104 -15z" />
    <glyph glyph-name="c" unicode="c" horiz-adv-x="1105" 
d="M1038 401l27 -4q-34 -190 -151 -298.5t-324 -114.5q-147 -4 -271 61t-196 179.5t-74 252.5q-3 109 36.5 205.5t110 165t168.5 109.5t209 42q138 2 258 -74t185 -220l12 -25v-133h-37q0 141 -61 233l-17 25q-61 77 -151 118.5t-189 39.5q-80 -1 -151 -29.5t-123 -76
t-90 -108.5t-56.5 -130.5t-17.5 -139.5q2 -88 35 -171t90.5 -148t144 -103.5t185.5 -36.5q96 2 175 32.5t133.5 83t89.5 119.5t50 146z" />
    <glyph glyph-name="d" unicode="d" horiz-adv-x="1097" 
d="M989 1399q-22 0 -35.5 -14.5t-13.5 -36.5v-1262q0 -22 13.5 -36.5t35.5 -14.5h60v-35h-179v303q-41 -7 -63.5 -41.5t-56.5 -122.5q-59 -155 -271 -155q-107 0 -191 42t-135 114.5t-77.5 164.5t-26.5 197q0 138 52 250.5t152 180.5t230 68q63 0 113.5 -22t80 -55t55.5 -71
t44 -71t42 -55t52 -22v729h179v-35h-60zM870 338v332q-33 0 -61 22t-47.5 55t-46 71.5t-54 71.5t-74 55t-104.5 22q-157 0 -253.5 -133t-96.5 -332q0 -132 34.5 -238.5t112 -176t187.5 -69.5q199 0 248 125q16 42 24 60.5t22.5 47t28 42t34 26.5t46.5 19z" />
    <glyph glyph-name="e" unicode="e" horiz-adv-x="1017" 
d="M950 406l27 -9q-28 -188 -142.5 -300.5t-310.5 -112.5q-138 0 -247 67.5t-168.5 184t-59.5 260.5q0 220 135 361.5t340 141.5q190 0 313.5 -129t125.5 -329h-596q-107 0 -170 -86q-33 -44 -37.5 -100t20.5 -105q47 -93 138 -161.5t206 -68.5q175 0 286 106.5t140 279.5z
M524 963q-118 0 -208.5 -65t-136.5 -170.5t-46 -231.5q0 -18 4 -76q77 155 230 155h518q0 167 -100.5 277.5t-260.5 110.5z" />
    <glyph glyph-name="f" unicode="f" horiz-adv-x="534" 
d="M492 1399q-118 0 -191.5 -74.5t-73.5 -202.5v-90q0 -49 49 -49h213v-35h-215q-25 0 -36 -10.5t-11 -38.5v-813q0 -22 13.5 -36.5t35.5 -14.5h60v-35h-287v35h60q22 0 35.5 14.5t13.5 36.5v813q0 28 -11 38.5t-36 10.5h-62v35h60q49 0 49 49v90q0 133 100 226
q95 86 234 86v-35z" />
    <glyph glyph-name="g" unicode="g" horiz-adv-x="1081" 
d="M862 983h178v-35h-59q-22 0 -35.5 -14.5t-13.5 -36.5v-940q0 -103 -33 -177t-90.5 -114t-124 -58t-145.5 -18q-151 0 -256 92.5t-105 221.5h33q0 -111 93 -195t235 -84q39 0 78.5 7.5t85 30t79.5 58t57 96.5t23 140v227q-33 0 -59.5 -20.5t-51 -50t-55 -59t-86.5 -50
t-131 -20.5q-130 0 -229.5 68t-150 180.5t-50.5 250.5q0 103 29 196.5t82.5 165t136 114t182.5 42.5q130 0 215.5 -90t85.5 -221q0 -48 23 -89.5t59 -41.5v424zM862 219v305q-50 0 -83.5 49.5t-33.5 116.5q0 112 -72.5 194.5t-193.5 82.5q-107 0 -187 -68.5t-119.5 -177.5
t-39.5 -238q0 -200 95 -332.5t251 -132.5q58 0 104 15t73.5 37t53.5 48.5t45 48.5t46.5 37t60.5 15z" />
    <glyph glyph-name="h" unicode="h" horiz-adv-x="1069" 
d="M977 35h59v-35h-286v35h59q22 0 35.5 14.5t13.5 36.5v608q0 104 -71.5 178t-168.5 74q-113 0 -191.5 -75t-78.5 -181q0 -67 -33.5 -116.5t-83.5 -49.5v-438q0 -22 14 -36.5t36 -14.5h59v-35h-287v35h60q22 0 35.5 14.5t13.5 36.5v1262q0 22 -13.5 36.5t-35.5 14.5h-60v35
h178v-875q36 0 59 41.5t23 89.5q0 128 91.5 219.5t213.5 91.5q127 0 218.5 -83t91.5 -205v-627q0 -22 13.5 -36.5t35.5 -14.5z" />
    <glyph glyph-name="i" unicode="i" horiz-adv-x="389" 
d="M186 1161q-30 0 -50.5 21.5t-20.5 52.5q0 30 20.5 51t50.5 21q31 0 52.5 -21.5t21.5 -50.5q0 -31 -21.5 -52.5t-52.5 -21.5zM231 86v897h-178v-35h60q22 0 35.5 -12.5t13.5 -34.5v-815q0 -22 -13.5 -36.5t-35.5 -14.5h-60v-35h287v35h-59q-22 0 -36 14.5t-14 36.5z" />
    <glyph glyph-name="j" unicode="j" horiz-adv-x="280" 
d="M160 1307q29 0 50 -21.5t21 -52.5q0 -29 -21 -50.5t-50 -21.5t-50.5 21.5t-21.5 50.5q0 31 21.5 52.5t50.5 21.5zM27 983h178v-1077q-6 -143 -101 -228q-46 -42 -112.5 -65t-134.5 -23v39q120 0 199 78t79 215v973q0 20 -15.5 36.5t-35.5 16.5h-57v35z" />
    <glyph glyph-name="k" unicode="k" horiz-adv-x="980" 
d="M920 35h45v-35h-285v35h47q19 0 29 16q5 10 2 21l-232 438l-268 -434q-9 -12 -0.5 -26.5t23.5 -14.5h57v-35h-285v35h58q20 0 34.5 14.5t14.5 34.5v1266q0 20 -14.5 34.5t-34.5 14.5h-58v35h178v-1325l488 790q14 21 0 39q-8 10 -27 10h-55v35h254v-35h-53
q-18 0 -37.5 -11.5t-28.5 -27.5l-205 -331l254 -484q35 -59 99 -59z" />
    <glyph glyph-name="l" unicode="l" horiz-adv-x="389" 
d="M231 86q0 -22 14 -36.5t36 -14.5h59v-35h-287v35h60q22 0 35.5 14.5t13.5 36.5v1262q0 22 -13.5 36.5t-35.5 14.5h-60v35h178v-1348z" />
    <glyph glyph-name="m" unicode="m" horiz-adv-x="1660" 
d="M1569 35h59v-35h-287v35h60q22 0 35.5 14.5t13.5 36.5v608q0 107 -62.5 179.5t-156.5 72.5q-115 0 -184.5 -74.5t-69.5 -187.5q0 -71 -24.5 -127.5t-71.5 -56.5v-414q0 -22 13.5 -36.5t35.5 -14.5h59v-35h-287v35h60q22 0 35.5 14.5t13.5 36.5v608q0 106 -61.5 179
t-153.5 73q-112 0 -182 -74t-70 -182q0 -67 -33.5 -116.5t-83.5 -49.5v-438q0 -22 13.5 -36.5t35.5 -14.5h60v-35h-287v35h60q22 0 35.5 14.5t13.5 36.5v815q0 22 -13.5 34.5t-35.5 12.5h-60v35h178v-424q36 0 59 41.5t23 89.5q0 129 83.5 220t203.5 91q123 0 204 -82.5
t81 -205.5v-176q59 0 59 157q0 127 84.5 217t206.5 90q125 0 207 -82t82 -206v-627q0 -22 13.5 -36.5t35.5 -14.5z" />
    <glyph glyph-name="n" unicode="n" horiz-adv-x="1064" 
d="M973 35h59v-35h-287v35h60q22 0 35.5 14.5t13.5 36.5v608q0 104 -71.5 178t-168.5 74q-113 0 -191.5 -75t-78.5 -181q0 -67 -33.5 -116.5t-83.5 -49.5v-438q0 -22 13.5 -36.5t35.5 -14.5h60v-35h-287v35h60q22 0 35.5 14.5t13.5 36.5v815q0 22 -13.5 34.5t-35.5 12.5h-60
v35h178v-424q36 0 59 41.5t23 89.5q0 128 91.5 219.5t213.5 91.5q127 0 218.5 -83t91.5 -205v-627q0 -22 13.5 -36.5t35.5 -14.5z" />
    <glyph glyph-name="o" unicode="o" horiz-adv-x="1144" 
d="M573 999q141 0 261.5 -68t191 -185t70.5 -254t-70.5 -254t-191 -185.5t-261.5 -68.5q-143 0 -264 68.5t-190.5 185.5t-69.5 254q0 103 41.5 196.5t111.5 161.5t167 108.5t204 40.5zM573 18q191 -3 315 131t124 343q0 206 -128 339.5t-311 133.5q-187 3 -312.5 -131
t-125.5 -342q0 -206 127 -340t311 -134z" />
    <glyph glyph-name="p" unicode="p" horiz-adv-x="1093" 
d="M614 999q100 0 182.5 -42.5t136 -114t82.5 -165t29 -196.5q0 -138 -50.5 -250.5t-150 -180.5t-229.5 -68q-75 0 -131 20.5t-86.5 50t-55 59t-51 50t-59.5 20.5v-506q0 -22 14 -36.5t36 -14.5h59v-35h-287v35h60q22 0 35.5 14.5t13.5 36.5v1221q0 22 -13.5 36.5
t-35.5 14.5h-60v35h178v-426q36 0 59 41.5t23 89.5q0 131 85.5 221t215.5 90zM614 16q156 0 251.5 132.5t95.5 332.5q0 96 -23.5 183t-66.5 154t-110 107t-147 40q-121 0 -193.5 -82.5t-72.5 -194.5q0 -67 -33.5 -116.5t-83.5 -49.5v-305q33 0 60.5 -15t46.5 -37t45 -48.5
t53.5 -48.5t73.5 -37t104 -15z" />
    <glyph glyph-name="q" unicode="q" horiz-adv-x="1089" 
d="M981 948q-22 0 -35.5 -14.5t-13.5 -36.5v-1221q0 -22 13.5 -36.5t35.5 -14.5h59v-35h-286v35h59q22 0 35.5 14.5t13.5 36.5v506q-33 0 -59.5 -20.5t-51 -50t-55 -59t-86.5 -50t-131 -20.5q-130 0 -229.5 68t-150 180.5t-50.5 250.5q0 103 29 196.5t82.5 165t136 114
t182.5 42.5q130 0 215.5 -90t85.5 -221q0 -48 23 -89.5t59 -41.5v426h178v-35h-59zM862 217v305q-50 0 -83.5 49.5t-33.5 116.5q0 112 -72.5 194.5t-193.5 82.5q-107 0 -187 -68.5t-119.5 -177.5t-39.5 -238q0 -200 95 -332.5t251 -132.5q58 0 104 15t73.5 37t53.5 48.5
t45 48.5t46.5 37t60.5 15z" />
    <glyph glyph-name="r" unicode="r" horiz-adv-x="700" 
d="M672 938q-142 30 -229 -47t-99 -199q-6 -64 -40 -116t-77 -52v-438q0 -22 13.5 -36.5t35.5 -14.5h60v-35h-287v35h60q22 0 35.5 14.5t13.5 36.5v811q0 22 -13.5 36.5t-35.5 14.5h-60v35h178v-424q31 0 54 42t28 93q6 65 33.5 125t73.5 107.5t116 68.5t152 6z" />
    <glyph glyph-name="s" unicode="s" horiz-adv-x="716" 
d="M121 774q0 -48 41.5 -98t103.5 -91t134.5 -88t134.5 -89t103.5 -94t41.5 -103q0 -61 -24.5 -106t-68.5 -71t-96.5 -38t-115.5 -12q-225 0 -291 149l-8 -133h-35v270h51q0 -46 17 -89t50 -80.5t89 -60t127 -22.5q96 0 165.5 45.5t69.5 129.5q0 29 -10.5 56.5t-35.5 55
t-46 48t-63.5 49t-65 43t-72.5 44.5q-53 32 -80 50t-68 50t-61.5 57.5t-36.5 61t-16 72.5q0 60 25 104.5t67.5 68.5t90 35t100.5 11q197 0 256 -137l8 121h35v-268h-51q-2 49 -15 91t-40.5 79t-78 58.5t-118.5 21.5q-86 0 -149.5 -46t-63.5 -145z" />
    <glyph glyph-name="t" unicode="t" horiz-adv-x="555" 
d="M227 311q0 -125 85 -200.5t200 -75.5v-35q-71 0 -140.5 22.5t-113.5 63.5q-100 93 -100 225v588q0 49 -49 49h-60v35h62q25 0 36 10.5t11 38.5v402h69v-402q0 -28 11 -38.5t36 -10.5h215v-35h-213q-49 0 -49 -49v-588z" />
    <glyph glyph-name="u" unicode="u" horiz-adv-x="1060" 
d="M92 948h-59v35h178v-694q0 -105 71 -178.5t167 -73.5q113 0 190.5 75t77.5 181q0 67 33.5 116.5t83.5 49.5v438q0 22 -14 36.5t-36 14.5h-59v35h178v-901q0 -22 13.5 -34.5t35.5 -12.5h60v-35h-178v424q-36 0 -59 -41.5t-23 -89.5q0 -128 -91 -219.5t-212 -91.5
q-127 0 -217.5 83t-90.5 205v627q0 22 -13.5 36.5t-35.5 14.5z" />
    <glyph glyph-name="v" unicode="v" horiz-adv-x="1017" 
d="M727 983h262v-35h-55q-28 0 -52.5 -15.5t-33.5 -41.5l-291 -817q-5 -21 4.5 -30t24.5 -9h55v-35h-260v35h55q20 0 26 15t1 30l-293 811q-10 27 -34.5 42t-53.5 15h-53v35h293v-35h-56q-38 0 -26 -45l286 -797l283 797q5 20 -2 32.5t-25 12.5h-55v35z" />
    <glyph glyph-name="w" unicode="w" horiz-adv-x="1497" 
d="M1206 983h262v-37h-55q-28 0 -52.5 -15.5t-33.5 -41.5l-270 -813q-5 -18 2 -27q9 -12 26 -12h56v-37h-260v37h55q14 0 22 10q12 15 5 35l-213 549l-213 -555q-7 -15 2 -27t26 -12h56v-37h-261v37h56q14 0 22 10q11 14 4 35l-272 807q-9 27 -34 42t-54 15h-53v37h293v-37
h-56q-14 0 -22 -10q-10 -14 -4 -35l266 -792l221 579l-78 201q-10 27 -34.5 42t-53.5 15h-53v37h481v-37h-55q-28 0 -52.5 -15.5t-33.5 -41.5l-62 -162l240 -618l262 792q6 21 -4 35q-7 10 -22 10h-56v37zM719 901l45 -117l45 117q6 21 -4 35q-7 10 -23 10h-37
q-15 0 -22 -10q-10 -14 -4 -35z" />
    <glyph glyph-name="x" unicode="x" horiz-adv-x="872" 
d="M803 37h53v-37h-291v37h88q10 0 14 6.5t-1 15.5l-240 385l-248 -385q-4 -5 -1.5 -13.5t13.5 -8.5h89v-37h-263v37h47q53 0 80 43l260 403l-266 428q-21 35 -65 35h-56v37h293v-37h-90q-7 0 -11.5 -7t-0.5 -15l235 -379l246 379q4 4 1.5 13t-13.5 9h-88v37h260v-37h-47
q-51 0 -78 -43l-256 -397l270 -434q21 -35 66 -35z" />
    <glyph glyph-name="y" unicode="y" horiz-adv-x="1007" 
d="M721 983h260v-35h-49q-28 0 -52.5 -15.5t-33.5 -41.5l-440 -1219q-10 -24 8 -39q6 -6 20 -6h51v-37h-260v37h58q28 0 53 16t35 44l114 333l-321 871q-9 26 -33.5 41.5t-52.5 15.5h-49v35h288v-35h-57q-14 0 -22 -8q-10 -10 0 -35l286 -792l283 792q9 24 -2 35q-8 8 -27 8
h-57v35z" />
    <glyph glyph-name="z" unicode="z" horiz-adv-x="817" 
d="M745 946q-37 0 -53 -28l-215 -373l129 65l15 -26l-170 -88l-248 -430q-6 -14 -1 -21.5t15 -7.5h492q6 10 6 22l6 211h37v-270h-713v37h29q35 0 51 29l219 376l-119 -61l-16 27l166 84l248 426q6 14 0.5 21t-15.5 7h-440q-8 0 -15.5 -6.5t-7.5 -15.5l-6 -211h-37v270h656
v-37h-13z" />
    </font>
</defs>
</svg>
